<svg width="484" height="343" viewBox="0 0 484 343" fill="none" xmlns="http://www.w3.org/2000/svg">
<path fill-rule="evenodd" clip-rule="evenodd" d="M106.63 24.3877L34.6914 168.266C36.7407 171.005 38.8908 173.658 41.1374 176.218L200.91 0.468063L206.09 5.17677L45.9119 181.372C47.0563 182.543 48.2224 183.69 49.4096 184.815L301.43 0L305.57 5.64484L54.738 189.588C56.8412 191.369 59.0025 193.081 61.2196 194.722L382.142 59.5967L384.858 66.0481L68.0536 199.44C69.7632 200.538 71.5016 201.596 73.2679 202.613L422.689 119.418L424.311 126.227L82.7603 207.549C97.4882 214.421 113.86 218.555 131.411 219.322H483.5V226.322H143.574C139.394 226.498 135.27 226.496 131.206 226.322H0V62.8224H7V82.8215C7.0136 103.134 11.0321 122.428 18.3698 139.774L40.0833 42.0632L46.9167 43.5817L23.2466 150.097C25.3526 154.115 27.6467 158.006 30.1192 161.758L100.37 21.2572L106.63 24.3877ZM17.9771 201.695L31.2148 175.219C32.8854 177.341 34.6153 179.411 36.4024 181.427L17.9771 201.695ZM13.0842 195.828L26.5375 168.921C24.585 166.133 22.729 163.266 20.9732 160.327L13.0842 195.828ZM29.5274 199.395L41.1953 186.561C42.0117 187.391 42.8385 188.211 43.6755 189.02L29.5274 199.395ZM29.5594 208.052L48.9364 193.843C50.5182 195.217 52.1324 196.555 53.7778 197.855L29.5594 208.052ZM43.9216 209.6L60.3112 202.7C61.3963 203.454 62.4933 204.192 63.602 204.915L43.9216 209.6ZM33.3109 219.322L72.2013 210.063C78.8809 213.724 85.9256 216.831 93.2923 219.322H33.3109ZM7 190.938V129.047C9.38923 136.674 12.3611 144.019 15.8706 151.02L7 190.938Z" fill="black"/>
<path fill-rule="evenodd" clip-rule="evenodd" d="M359.837 342.822C340.399 342.822 327.478 327.317 327.478 302.822C327.478 278.328 340.399 262.822 359.837 262.822C379.388 262.822 392.421 278.44 392.421 302.822C392.421 327.204 379.388 342.822 359.837 342.822ZM359.837 333.834C373.882 333.834 382.421 322.373 382.421 302.822C382.421 283.272 373.882 271.811 359.837 271.811C346.017 271.811 337.478 283.047 337.478 302.822C337.478 322.598 346.017 333.834 359.837 333.834Z" fill="black"/>
<path d="M303.687 342.148H293.912V272.485H268.406V263.496H329.193V272.485H303.687V342.148Z" fill="black"/>
<path fill-rule="evenodd" clip-rule="evenodd" d="M211.941 342.148H221.716V311.923H240.705C256.66 311.923 267.222 302.373 267.222 287.654C267.222 272.935 256.66 263.496 240.705 263.496H211.941V342.148ZM221.716 302.935V272.485H239.919C250.48 272.485 257.222 278.328 257.222 287.654C257.222 296.98 250.368 302.935 239.806 302.935H221.716Z" fill="black"/>
<path fill-rule="evenodd" clip-rule="evenodd" d="M148.184 342.148H138.184L166.049 263.496H178.072L206.049 342.148H195.6L188.072 320.912H155.824L148.184 342.148ZM171.779 274.171L158.633 312.036H185.15L171.779 274.171Z" fill="black"/>
<path fill-rule="evenodd" clip-rule="evenodd" d="M81.4108 342.148H91.1861V311.923H108.939L125.905 342.148H136.916L118.939 310.013C129.276 307.204 136.13 298.665 136.13 287.654C136.13 272.935 125.456 263.496 109.501 263.496H81.4108V342.148ZM91.1861 302.935V272.485H108.826C119.276 272.485 126.13 278.44 126.13 287.654C126.13 296.867 119.276 302.935 108.714 302.935H91.1861Z" fill="black"/>
<path d="M27.9944 342.148H16.5337L3.5 263.496H12.8258L23.0506 329.564L34.736 283.609H43.9494L55.2978 329.564L65.5225 263.496H74.8483L61.5899 342.148H50.2416L39.118 297.541L27.9944 342.148Z" fill="black"/>
</svg>
